<svg width="24" height="25" viewBox="0 0 24 25" fill="none" xmlns="http://www.w3.org/2000/svg">
<path d="M3 12.5C3 7.52943 7.02943 3.5 12 3.5C16.9706 3.5 21 7.52943 21 12.5V18.9286C21 19.2271 21 19.3764 20.9859 19.502C20.8684 20.5451 20.0451 21.3684 19.002 21.4859C18.8764 21.5 18.7271 21.5 18.4286 21.5H12C7.02943 21.5 3 17.4706 3 12.5Z" stroke="#D3D3D3"/>
<path d="M9.375 15.5625C9.23694 15.5625 9.125 15.4506 9.125 15.3125C9.125 15.1744 9.23694 15.0625 9.375 15.0625C9.51306 15.0625 9.625 15.1744 9.625 15.3125C9.625 15.4506 9.51306 15.5625 9.375 15.5625Z" fill="black" stroke="#D3D3D3"/>
<path d="M12.4139 9.99279C12.5515 9.71432 12.9486 9.71432 13.0862 9.99279L13.2723 10.3694C13.5882 11.0086 14.0457 11.5673 14.61 12.003L14.9906 12.2969C15.1851 12.447 15.1851 12.7404 14.9906 12.8905L14.61 13.1844C14.0457 13.6201 13.5882 14.1788 13.2723 14.818L13.0862 15.1946C12.9486 15.4731 12.5515 15.4731 12.4139 15.1946L12.2277 14.818C11.9119 14.1788 11.4544 13.6201 10.8901 13.1844L10.5095 12.8905C10.315 12.7404 10.315 12.447 10.5095 12.2969L10.8901 12.003C11.4544 11.5673 11.9119 11.0086 12.2277 10.3694L12.4139 9.99279Z" stroke="#D3D3D3" stroke-linejoin="round"/>
</svg>
