<svg width="20" height="20" viewBox="0 0 20 20" fill="none" xmlns="http://www.w3.org/2000/svg">
<g clip-path="url(#clip0_192_2038)">
<rect width="20" height="20" rx="10" fill="#242424"/>
<path d="M-11.5776 32.4625H-20.9226C-21.0411 32.4625 -21.1495 32.5297 -21.2023 32.6356C-21.2551 32.7419 -21.2436 32.8688 -21.172 32.9634L-16.5626 39.0697V41.3669C-16.5626 41.5397 -16.4226 41.6794 -16.2501 41.6794C-16.0776 41.6794 -15.9376 41.5397 -15.9376 41.3669V39.0697L-11.3282 32.9634C-11.2567 32.8688 -11.2451 32.7419 -11.2979 32.6356C-11.3507 32.5297 -11.4589 32.4625 -11.5776 32.4625ZM-16.2501 38.4459L-20.2951 33.0875H-12.2048L-16.2501 38.4459ZM220 19.375C214.831 19.375 210.625 15.1694 210.625 10C210.625 4.83063 214.831 0.625 220 0.625C225.169 0.625 229.375 4.83063 229.375 10C229.375 15.1694 225.169 19.375 220 19.375ZM220 1.25C215.175 1.25 211.25 5.17531 211.25 10C211.25 14.8247 215.175 18.75 220 18.75C224.825 18.75 228.75 14.8247 228.75 10C228.75 5.17531 224.825 1.25 220 1.25Z" fill="#FF4100"/>
<path d="M33.7722 10C33.7722 11.3665 34.8835 12.4778 36.25 12.4778C37.6165 12.4778 38.7281 11.3665 38.7281 10C38.7281 8.6335 37.6165 7.52219 36.25 7.52219C34.8838 7.52219 33.7722 8.63351 33.7722 10ZM34.5972 10C34.5972 9.08897 35.3387 8.34719 36.25 8.34719C37.1613 8.34719 37.9031 9.08899 37.9031 10C37.9031 10.911 37.1613 11.6528 36.25 11.6528C35.3387 11.6528 34.5972 10.911 34.5972 10ZM10 0.525C4.7754 0.525 0.525 4.7754 0.525 10C0.525 15.2246 4.7754 19.475 10 19.475C15.2246 19.475 19.475 15.2246 19.475 10C19.475 4.7754 15.2246 0.525 10 0.525ZM10 18.65C5.23054 18.65 1.35 14.7695 1.35 10C1.35 5.23054 5.23054 1.35 10 1.35C14.7695 1.35 18.65 5.23054 18.65 10C18.65 14.7695 14.7695 18.65 10 18.65Z" fill="#FF4100" stroke="#FF4100" stroke-width="0.2"/>
<path d="M12.78 4.11594L12.8343 4.03195C12.891 4.06861 12.9451 4.11147 12.9946 4.16135C12.9947 4.16137 12.9947 4.16139 12.9947 4.16141L15.2135 6.38054C15.6172 6.78425 15.6173 7.44069 15.2135 7.84415C15.2135 7.84416 15.2135 7.84417 15.2135 7.84418L14.3604 8.69727L9.3454 13.7123C9.29313 13.7645 9.22755 13.8022 9.15546 13.8204M12.78 4.11594L5.5543 10.2195L4.49559 14.3778L4.49558 14.3778C4.4597 14.5189 4.50092 14.6686 4.60366 14.7713C4.68202 14.8497 4.78724 14.8922 4.89531 14.8922C4.92902 14.8922 4.96326 14.8881 4.99718 14.8794L4.9725 14.7825L4.99731 14.8794L9.15546 13.8204M12.78 4.11594L12.8343 4.03194C12.4374 3.77551 11.8753 3.81708 11.5309 4.16113L11.5309 4.16116M12.78 4.11594L11.5309 4.16116M9.15546 13.8204L9.13094 13.7234L9.15562 13.8203L9.15546 13.8204ZM11.5309 4.16116L5.66241 10.0296M11.5309 4.16116L5.66241 10.0296M5.66241 10.0296C5.61019 10.0818 5.57259 10.1474 5.55434 10.2194L5.66241 10.0296ZM14.6302 6.96383L14.6303 6.96393C14.712 7.04543 14.7122 7.17892 14.6302 7.26085L14.0688 7.82233L11.5527 5.30594L12.1138 4.74477C12.1923 4.66626 12.3331 4.66639 12.4112 4.74446L14.6302 6.96383ZM13.4855 8.40593L8.84214 13.0489L5.46657 13.9084L6.32607 10.5329L10.9694 5.88955L13.4855 8.40593ZM-16.25 -0.1C-21.4746 -0.1 -25.725 4.1504 -25.725 9.375C-25.725 14.5996 -21.4746 18.85 -16.25 18.85C-11.0254 18.85 -6.775 14.5996 -6.775 9.375C-6.775 4.1504 -11.0254 -0.1 -16.25 -0.1ZM-16.25 18.025C-21.0195 18.025 -24.9 14.1445 -24.9 9.375C-24.9 4.60554 -21.0195 0.725 -16.25 0.725C-11.4805 0.725 -7.6 4.60554 -7.6 9.375C-7.6 14.1445 -11.4805 18.025 -16.25 18.025Z" fill="#FF4100" stroke="#FF4100" stroke-width="0.2"/>
<path d="M-16.667 8.08063C-16.2364 8.08063 -15.8857 7.73032 -15.8857 7.29938C-15.8857 6.86844 -16.2364 6.51813 -16.667 6.51813C-17.0976 6.51813 -17.4482 6.86844 -17.4482 7.29938C-17.4482 7.73032 -17.0976 8.08063 -16.667 8.08063ZM-16.667 7.14313C-16.5807 7.14313 -16.5107 7.21344 -16.5107 7.29938C-16.5107 7.38531 -16.5807 7.45563 -16.667 7.45563C-16.7532 7.45563 -16.8232 7.38531 -16.8232 7.29938C-16.8232 7.21344 -16.7532 7.14313 -16.667 7.14313ZM228.443 -12.1781C229.04 -13.41 229.375 -14.7916 229.375 -16.25C229.375 -19.9522 227.217 -23.1591 224.094 -24.6819C224.087 -24.6853 224.08 -24.6897 224.073 -24.6925C222.84 -25.29 221.459 -25.625 220 -25.625C216.296 -25.625 213.087 -23.465 211.565 -20.3391C211.562 -20.3328 211.559 -20.3275 211.556 -20.3209C210.96 -19.0894 210.625 -17.7081 210.625 -16.25C210.625 -12.5456 212.785 -9.33687 215.911 -7.81531C215.917 -7.81219 215.923 -7.80844 215.93 -7.80562C217.162 -7.20937 218.542 -6.875 220 -6.875C223.703 -6.875 226.91 -9.03312 228.432 -12.1569C228.436 -12.1644 228.44 -12.1706 228.443 -12.1781ZM228.75 -16.25C228.75 -15.0369 228.501 -13.8809 228.053 -12.83L220.443 -20.4406L224.02 -24.0181C226.827 -22.5591 228.75 -19.6259 228.75 -16.25ZM220.001 -19.9984L223.751 -16.2478L220.001 -12.4975L216.25 -16.2478L220.001 -19.9984ZM220 -25C221.213 -25 222.37 -24.7512 223.421 -24.3028L219.78 -20.6616L215.808 -16.69L212.231 -20.2675C213.689 -23.0759 216.623 -25 220 -25ZM211.25 -16.25C211.25 -17.4625 211.498 -18.6178 211.946 -19.6684L215.587 -16.0269L219.559 -12.0556L215.984 -8.48031C213.175 -9.93812 211.25 -12.8725 211.25 -16.25ZM220 -7.5C218.788 -7.5 217.633 -7.74812 216.582 -8.19562L220.221 -11.8341L220.222 -11.8347L224.193 -15.8066L227.768 -12.2312C226.31 -9.42344 223.376 -7.5 220 -7.5ZM193.75 -6.875C188.581 -6.875 184.375 -11.0806 184.375 -16.25C184.375 -21.4194 188.581 -25.625 193.75 -25.625C198.919 -25.625 203.125 -21.4194 203.125 -16.25C203.125 -11.0806 198.919 -6.875 193.75 -6.875ZM193.75 -25C188.925 -25 185 -21.0747 185 -16.25C185 -11.4253 188.925 -7.5 193.75 -7.5C198.575 -7.5 202.5 -11.4253 202.5 -16.25C202.5 -21.0747 198.575 -25 193.75 -25Z" fill="#FF4100"/>
</g>
<defs>
<clipPath id="clip0_192_2038">
<rect width="20" height="20" rx="10" fill="white"/>
</clipPath>
</defs>
</svg>
