<svg width="95" height="96" viewBox="0 0 95 96" fill="none" xmlns="http://www.w3.org/2000/svg">
<rect x="0.5" y="1" width="94" height="94" rx="47" stroke="white"/>
<path d="M65.0781 26.0166C65.0781 16.3567 57.168 8.45312 47.5 8.45312C37.832 8.45312 29.9219 16.3567 29.9219 26.0166C29.9219 35.1975 36.9531 42.7019 45.902 43.5002V49.9668H41.108C40.229 49.9668 39.5099 50.6853 39.5099 51.5635C39.5099 52.4417 40.229 53.1602 41.108 53.1602H45.902V57.9502C45.902 58.8284 46.6211 59.5469 47.5 59.5469C48.3789 59.5469 49.098 58.8284 49.098 57.9502V53.1602H53.892C54.771 53.1602 55.4901 52.4417 55.4901 51.5635C55.4901 50.6853 54.771 49.9668 53.892 49.9668H49.098V43.5002C58.0469 42.7019 65.0781 35.1975 65.0781 26.0166ZM33.1179 26.0166C33.1179 18.113 39.5898 11.6465 47.5 11.6465C55.4102 11.6465 61.8821 18.113 61.8821 26.0166C61.8821 33.9202 55.4102 40.3867 47.5 40.3867C39.5898 40.3867 33.1179 33.9202 33.1179 26.0166Z" fill="white"/>
<path d="M27.832 78.0469H25.41V74.3649C25.41 73.9635 25.5267 73.6462 25.76 73.4129C25.9933 73.1795 26.3107 73.0629 26.712 73.0629C26.936 73.0629 27.1507 73.0769 27.356 73.1049C27.5707 73.1329 27.7293 73.1609 27.832 73.1889V78.0469ZM26.684 78.5369V76.6049H30.898C30.9633 76.7075 31.024 76.8429 31.08 77.0109C31.136 77.1695 31.164 77.3469 31.164 77.5429C31.164 77.8882 31.0847 78.1402 30.926 78.2989C30.7767 78.4575 30.5713 78.5369 30.31 78.5369H26.684ZM26.712 75.0229V73.0629H31.374C31.4393 73.1655 31.4953 73.3009 31.542 73.4689C31.598 73.6369 31.626 73.8189 31.626 74.0149C31.626 74.3602 31.5467 74.6169 31.388 74.7849C31.2387 74.9435 31.0333 75.0229 30.772 75.0229H26.712ZM25.41 77.4449H27.86V81.5329C27.7573 81.5609 27.5987 81.5889 27.384 81.6169C27.1693 81.6449 26.95 81.6589 26.726 81.6589C26.2407 81.6589 25.9 81.5749 25.704 81.4069C25.508 81.2295 25.41 80.9262 25.41 80.4969V77.4449ZM33.499 79.2089L33.415 77.6409L36.649 77.1089C36.6304 76.9222 36.537 76.7355 36.369 76.5489C36.201 76.3622 35.9397 76.2689 35.585 76.2689C35.2117 76.2689 34.899 76.3902 34.647 76.6329C34.4044 76.8755 34.2737 77.2209 34.255 77.6689L34.339 78.8449C34.4324 79.2742 34.6424 79.5729 34.969 79.7409C35.305 79.9089 35.6784 79.9929 36.089 79.9929C36.481 79.9929 36.8544 79.9415 37.209 79.8389C37.5637 79.7362 37.8484 79.6242 38.063 79.5029C38.2124 79.5962 38.3384 79.7269 38.441 79.8949C38.5437 80.0629 38.595 80.2402 38.595 80.4269C38.595 80.7349 38.4784 80.9915 38.245 81.1969C38.021 81.3929 37.7084 81.5375 37.307 81.6309C36.9057 81.7242 36.4437 81.7709 35.921 81.7709C35.193 81.7709 34.535 81.6355 33.947 81.3649C33.3684 81.0849 32.9064 80.6695 32.561 80.1189C32.225 79.5682 32.057 78.8775 32.057 78.0469C32.057 77.4309 32.155 76.8989 32.351 76.4509C32.5564 76.0029 32.827 75.6389 33.163 75.3589C33.499 75.0789 33.8724 74.8735 34.283 74.7429C34.703 74.6029 35.1324 74.5329 35.571 74.5329C36.2337 74.5329 36.8124 74.6635 37.307 74.9249C37.8017 75.1769 38.189 75.5269 38.469 75.9749C38.749 76.4135 38.889 76.9222 38.889 77.5009C38.889 77.8182 38.8004 78.0609 38.623 78.2289C38.4457 78.3969 38.1984 78.5042 37.881 78.5509L33.499 79.2089ZM46.4186 76.8709V78.4529H44.0386V77.1929C44.0386 76.9129 43.9546 76.7122 43.7866 76.5909C43.628 76.4602 43.432 76.3949 43.1986 76.3949C43.0213 76.3949 42.8673 76.4229 42.7366 76.4789C42.606 76.5255 42.4986 76.5722 42.4146 76.6189V78.4529H40.0346V76.3249C40.0346 76.0729 40.086 75.8675 40.1886 75.7089C40.3006 75.5502 40.45 75.4055 40.6366 75.2749C40.954 75.0509 41.346 74.8735 41.8126 74.7429C42.2886 74.6029 42.7833 74.5329 43.2966 74.5329C43.7353 74.5329 44.1553 74.6029 44.5566 74.7429C44.958 74.8735 45.322 75.0882 45.6486 75.3869C45.7233 75.4522 45.798 75.5175 45.8726 75.5829C45.9566 75.6482 46.0173 75.7182 46.0546 75.7929C46.1573 75.9515 46.2413 76.1242 46.3066 76.3109C46.3813 76.4975 46.4186 76.6842 46.4186 76.8709ZM50.4226 77.1229V78.4529H48.0426V77.1929C48.0426 76.9129 47.968 76.7122 47.8186 76.5909C47.6693 76.4602 47.4733 76.3949 47.2306 76.3949C47.0533 76.3949 46.8853 76.4322 46.7266 76.5069C46.568 76.5722 46.4373 76.6469 46.3346 76.7309L45.0326 75.4009C45.3593 75.1675 45.7186 74.9669 46.1106 74.7989C46.512 74.6215 47.0066 74.5329 47.5946 74.5329C48.0706 74.5329 48.5233 74.6169 48.9526 74.7849C49.3913 74.9529 49.746 75.2282 50.0166 75.6109C50.2873 75.9842 50.4226 76.4882 50.4226 77.1229ZM40.0346 77.8509H42.4146V81.5329C42.312 81.5609 42.1626 81.5889 41.9666 81.6169C41.78 81.6449 41.5746 81.6589 41.3506 81.6589C40.8933 81.6589 40.5573 81.5795 40.3426 81.4209C40.1373 81.2622 40.0346 80.9682 40.0346 80.5389V77.8509ZM44.0386 77.8509H46.4186V81.5329C46.316 81.5609 46.1666 81.5889 45.9706 81.6169C45.784 81.6449 45.5786 81.6589 45.3546 81.6589C44.8973 81.6589 44.5613 81.5795 44.3466 81.4209C44.1413 81.2622 44.0386 80.9682 44.0386 80.5389V77.8509ZM48.0426 77.8509H50.4226V81.5329C50.32 81.5609 50.1706 81.5889 49.9746 81.6169C49.788 81.6449 49.5826 81.6589 49.3586 81.6589C48.9013 81.6589 48.5653 81.5795 48.3506 81.4209C48.1453 81.2622 48.0426 80.9682 48.0426 80.5389V77.8509ZM54.8002 81.7709C53.8202 81.7709 53.0315 81.5842 52.4342 81.2109C51.8462 80.8282 51.5522 80.2542 51.5522 79.4889C51.5522 78.8449 51.7435 78.3502 52.1262 78.0049C52.5182 77.6595 53.1108 77.4449 53.9042 77.3609L55.7382 77.1649V77.0669C55.7382 76.7962 55.6168 76.6049 55.3742 76.4929C55.1408 76.3715 54.8002 76.3109 54.3522 76.3109C54.0068 76.3109 53.6615 76.3482 53.3162 76.4229C52.9802 76.4975 52.6768 76.5909 52.4062 76.7029C52.2848 76.6189 52.1822 76.4929 52.0982 76.3249C52.0142 76.1475 51.9722 75.9655 51.9722 75.7789C51.9722 75.3309 52.2102 75.0135 52.6862 74.8269C52.9568 74.7242 53.2742 74.6495 53.6382 74.6029C54.0115 74.5562 54.3615 74.5329 54.6882 74.5329C55.7055 74.5329 56.5175 74.7429 57.1242 75.1629C57.7402 75.5735 58.0482 76.2175 58.0482 77.0949V80.2309C58.0482 80.4735 57.9782 80.6742 57.8382 80.8329C57.7075 80.9822 57.5488 81.1129 57.3622 81.2249C57.0635 81.4022 56.6995 81.5375 56.2702 81.6309C55.8408 81.7242 55.3508 81.7709 54.8002 81.7709ZM54.8002 80.0349C54.9588 80.0349 55.1315 80.0209 55.3182 79.9929C55.5142 79.9555 55.6588 79.9089 55.7522 79.8529V78.7329L54.7442 78.8169C54.4828 78.8355 54.2682 78.8915 54.1002 78.9849C53.9322 79.0782 53.8482 79.2182 53.8482 79.4049C53.8482 79.5915 53.9182 79.7455 54.0582 79.8669C54.2075 79.9789 54.4548 80.0349 54.8002 80.0349ZM59.5734 77.8509H61.9534V81.5329C61.8507 81.5609 61.7014 81.5889 61.5054 81.6169C61.3187 81.6449 61.1134 81.6589 60.8894 81.6589C60.4321 81.6589 60.0961 81.5795 59.8814 81.4209C59.6761 81.2622 59.5734 80.9682 59.5734 80.5389V77.8509ZM61.9534 79.0969H59.5734V72.4189C59.6761 72.3909 59.8207 72.3629 60.0074 72.3349C60.2034 72.3069 60.4134 72.2929 60.6374 72.2929C61.1041 72.2929 61.4401 72.3722 61.6454 72.5309C61.8507 72.6802 61.9534 72.9742 61.9534 73.4129V79.0969ZM64.6299 79.2089L64.5459 77.6409L67.7799 77.1089C67.7612 76.9222 67.6679 76.7355 67.4999 76.5489C67.3319 76.3622 67.0706 76.2689 66.7159 76.2689C66.3426 76.2689 66.0299 76.3902 65.7779 76.6329C65.5352 76.8755 65.4046 77.2209 65.3859 77.6689L65.4699 78.8449C65.5632 79.2742 65.7732 79.5729 66.0999 79.7409C66.4359 79.9089 66.8092 79.9929 67.2199 79.9929C67.6119 79.9929 67.9852 79.9415 68.3399 79.8389C68.6946 79.7362 68.9792 79.6242 69.1939 79.5029C69.3432 79.5962 69.4692 79.7269 69.5719 79.8949C69.6746 80.0629 69.7259 80.2402 69.7259 80.4269C69.7259 80.7349 69.6092 80.9915 69.3759 81.1969C69.1519 81.3929 68.8392 81.5375 68.4379 81.6309C68.0366 81.7242 67.5746 81.7709 67.0519 81.7709C66.3239 81.7709 65.6659 81.6355 65.0779 81.3649C64.4992 81.0849 64.0372 80.6695 63.6919 80.1189C63.3559 79.5682 63.1879 78.8775 63.1879 78.0469C63.1879 77.4309 63.2859 76.8989 63.4819 76.4509C63.6872 76.0029 63.9579 75.6389 64.2939 75.3589C64.6299 75.0789 65.0032 74.8735 65.4139 74.7429C65.8339 74.6029 66.2632 74.5329 66.7019 74.5329C67.3646 74.5329 67.9432 74.6635 68.4379 74.9249C68.9326 75.1769 69.3199 75.5269 69.5999 75.9749C69.8799 76.4135 70.0199 76.9222 70.0199 77.5009C70.0199 77.8182 69.9312 78.0609 69.7539 78.2289C69.5766 78.3969 69.3292 78.5042 69.0119 78.5509L64.6299 79.2089Z" fill="white"/>
</svg>
