<svg width="25" height="25" viewBox="0 0 25 25" fill="none" xmlns="http://www.w3.org/2000/svg">
<path d="M7.73615 21.9503C7.68823 21.9067 7.64133 21.8619 7.59553 21.816L7.73615 21.9503ZM7.73615 21.9503C7.46492 22.1124 7.15272 22.2 6.83158 22.2C6.36839 22.2 5.92382 22.0177 5.5939 21.6927C5.59354 21.6923 5.59317 21.6919 5.59281 21.6916L3.47285 19.5716L7.73615 21.9503ZM20.2157 11.6695L19.7383 12.1461L19.738 12.1464C19.5755 12.309 19.3826 12.4379 19.1702 12.5259C18.9579 12.6138 18.7303 12.6591 18.5005 12.6591C18.2706 12.6591 18.043 12.6138 17.8307 12.5259C17.6184 12.4379 17.4254 12.309 17.2629 12.1464L17.2627 12.1462L15.6712 10.5562L15.3177 10.203L14.9643 10.5564L10.7223 14.7984L10.3688 15.1519L10.7222 15.5054L12.3129 17.0969L12.313 17.097C12.641 17.4251 12.8253 17.8702 12.8253 18.3342C12.8253 18.7982 12.641 19.2433 12.313 19.5715L11.8356 20.0481L11.8353 20.0483C11.5072 20.3764 11.0621 20.5607 10.5981 20.5607C10.134 20.5607 9.689 20.3764 9.36083 20.0483L5.11744 15.805C5.11742 15.8049 5.1174 15.8049 5.11738 15.8049C4.78934 15.4767 4.60506 15.0317 4.60506 14.5677C4.60506 14.1037 4.78931 13.6588 5.11729 13.3306C5.11734 13.3305 5.11739 13.3305 5.11744 13.3305L5.59486 12.8538L5.59516 12.8535C5.75767 12.6909 5.9506 12.562 6.16294 12.474L5.97158 12.0121L6.16294 12.474C6.37528 12.3861 6.60287 12.3408 6.8327 12.3408C7.06254 12.3408 7.29013 12.3861 7.50247 12.474L7.69383 12.0121L7.50247 12.474C7.71481 12.562 7.90774 12.6909 8.07025 12.8535L8.07044 12.8537L9.66194 14.4437L10.0155 14.7969L10.3689 14.4435L14.6109 10.2015L14.9644 9.84804L14.611 9.49448L13.0202 7.90298L13.0202 7.90295C12.6921 7.57478 12.5078 7.12974 12.5078 6.6657C12.5078 6.20167 12.6921 5.75663 13.0202 5.42845L13.4971 4.95156C13.8253 4.62349 14.2703 4.43918 14.7343 4.43918C15.1984 4.43918 15.6434 4.62348 15.9716 4.95154C15.9716 4.95155 15.9716 4.95155 15.9716 4.95156L20.2157 9.19495C20.5438 9.52313 20.7281 9.96817 20.7281 10.4322C20.7281 10.8961 20.5439 11.3411 20.216 11.6692C20.2159 11.6693 20.2158 11.6694 20.2157 11.6695ZM21.9822 7.42843L17.7381 3.18438C17.738 3.18423 17.7378 3.18409 17.7377 3.18395C17.7377 3.18393 17.7377 3.18392 17.7376 3.1839C17.6911 3.1373 17.6435 3.09187 17.5948 3.04766C17.8661 2.88337 18.1792 2.79443 18.5016 2.79443C18.9653 2.79443 19.4101 2.97851 19.7382 3.30623L21.8603 5.42829L21.9822 7.42843ZM3.351 17.5715L7.59505 21.8155L3.47263 19.5714C3.14505 19.2433 2.96106 18.7986 2.96106 18.335C2.96106 18.0126 3.04999 17.6994 3.21428 17.4282C3.25849 17.4769 3.30392 17.5245 3.35053 17.571C3.35068 17.5712 3.35084 17.5713 3.351 17.5715Z" stroke="white"/>
</svg>
