<svg width="24" height="25" viewBox="0 0 24 25" fill="none" xmlns="http://www.w3.org/2000/svg">
<path d="M20.9311 7.88327L20.9314 7.88349C21.4982 8.32803 21.9565 8.89565 22.2715 9.54341C22.5866 10.1912 22.7502 10.9021 22.75 11.6224V11.6226V18.5001C22.75 19.7598 22.2496 20.968 21.3588 21.8588C20.468 22.7496 19.2598 23.2501 18 23.2501H15.75C15.6837 23.2501 15.6201 23.2237 15.5732 23.1768C15.5263 23.13 15.5 23.0664 15.5 23.0001V17.7501C15.5 16.8218 15.1312 15.9316 14.4749 15.2752C13.8185 14.6188 12.9283 14.2501 12 14.2501C11.0717 14.2501 10.1815 14.6188 9.52513 15.2752C8.86875 15.9316 8.5 16.8218 8.5 17.7501V23.0001C8.5 23.0664 8.47366 23.13 8.42678 23.1768C8.37989 23.2237 8.3163 23.2501 8.25 23.2501H6C4.74022 23.2501 3.53204 22.7496 2.64124 21.8588C1.75045 20.968 1.25 19.7598 1.25 18.5001V11.6226L1.25 11.6224C1.24979 10.9021 1.41341 10.1912 1.72847 9.54341L1.27883 9.32471L1.72847 9.54341C2.04353 8.89565 2.50179 8.32803 3.06857 7.88349L3.06885 7.88327L9.99135 2.44577L9.9915 2.44565C10.5642 1.99546 11.2715 1.75073 12 1.75073C12.7285 1.75073 13.4358 1.99546 14.0085 2.44565L14.0086 2.44577L20.9311 7.88327Z" stroke="#D3D3D3"/>
</svg>
