<svg width="95" height="96" viewBox="0 0 95 96" fill="none" xmlns="http://www.w3.org/2000/svg">
<rect x="0.5" y="1" width="94" height="94" rx="47" stroke="white"/>
<path d="M49.2031 22.2059V14.2119L51.4172 16.423C51.5665 16.5899 51.7506 16.7221 51.9566 16.8103C52.1626 16.8984 52.3854 16.9404 52.6094 16.9333C53.055 16.9104 53.4777 16.7294 53.8016 16.423C54.1136 16.1051 54.2884 15.6776 54.2884 15.2324C54.2884 14.7872 54.1136 14.3598 53.8016 14.0418L48.6922 8.93932C48.3738 8.62768 47.9458 8.45312 47.5 8.45312C47.0542 8.45312 46.6262 8.62768 46.3078 8.93932L41.1985 14.0418C40.9525 14.3694 40.8331 14.7745 40.8621 15.1829C40.8912 15.5913 41.0668 15.9755 41.3567 16.265C41.6466 16.5545 42.0313 16.7299 42.4402 16.7589C42.8492 16.7879 43.2549 16.6687 43.5828 16.423L45.7969 14.2119V22.2059C40.9958 22.6436 36.5484 24.9128 33.3799 28.5416C30.2114 32.1704 28.5657 36.8793 28.785 41.6889C29.0044 46.4986 31.072 51.0386 34.5577 54.3647C38.0434 57.6908 42.6789 59.5469 47.5 59.5469C52.3211 59.5469 56.9566 57.6908 60.4423 54.3647C63.928 51.0386 65.9956 46.4986 66.215 41.6889C66.4344 36.8793 64.7886 32.1704 61.6201 28.5416C58.4516 24.9128 54.0043 22.6436 49.2031 22.2059ZM47.5 56.0526C44.4684 56.0526 41.5049 55.1548 38.9842 53.4728C36.4635 51.7908 34.4988 49.4001 33.3387 46.603C32.1785 43.8059 31.875 40.728 32.4664 37.7587C33.0579 34.7893 34.5177 32.0617 36.6614 29.9209C38.8051 27.7801 41.5363 26.3222 44.5097 25.7316C47.483 25.141 50.565 25.4441 53.3658 26.6027C56.1667 27.7613 58.5606 29.7233 60.2449 32.2406C61.9292 34.7579 62.8281 37.7175 62.8281 40.745C62.8281 44.8048 61.2132 48.6984 58.3386 51.5691C55.4641 54.4398 51.5653 56.0526 47.5 56.0526Z" fill="white"/>
<path d="M38.776 79.4609C38.6547 79.5542 38.496 79.6335 38.3 79.6989C38.1133 79.7642 37.894 79.7969 37.642 79.7969C37.306 79.7969 37.026 79.7549 36.802 79.6709C36.5873 79.5869 36.4473 79.4422 36.382 79.2369C36.1207 78.4062 35.906 77.7389 35.738 77.2349C35.57 76.7309 35.4393 76.2875 35.346 75.9049H35.276C35.248 76.4555 35.2247 76.9595 35.206 77.4169C35.1967 77.8649 35.1873 78.3035 35.178 78.7329C35.178 79.1529 35.1687 79.5869 35.15 80.0349C35.1407 80.4735 35.122 80.9589 35.094 81.4909C34.9727 81.5282 34.814 81.5655 34.618 81.6029C34.422 81.6402 34.226 81.6589 34.03 81.6589C33.6287 81.6589 33.3113 81.5935 33.078 81.4629C32.8447 81.3322 32.728 81.0942 32.728 80.7489C32.728 80.5155 32.7373 80.1982 32.756 79.7969C32.7747 79.3862 32.798 78.9289 32.826 78.4249C32.8633 77.9115 32.896 77.3749 32.924 76.8149C32.9613 76.2549 32.9987 75.6995 33.036 75.1489C33.0733 74.5982 33.106 74.0849 33.134 73.6089C33.2087 73.4875 33.372 73.3569 33.624 73.2169C33.876 73.0769 34.2307 73.0069 34.688 73.0069C35.1827 73.0069 35.57 73.0862 35.85 73.2449C36.1393 73.3942 36.3447 73.6415 36.466 73.9869C36.578 74.2855 36.6993 74.6402 36.83 75.0509C36.9607 75.4522 37.0913 75.8629 37.222 76.2829C37.3527 76.6935 37.4693 77.0622 37.572 77.3889H37.642C37.866 76.6142 38.09 75.8582 38.314 75.1209C38.5473 74.3742 38.7527 73.7582 38.93 73.2729C39.07 73.1982 39.252 73.1375 39.476 73.0909C39.7 73.0349 39.9427 73.0069 40.204 73.0069C40.6613 73.0069 41.0347 73.0769 41.324 73.2169C41.6133 73.3475 41.7813 73.5389 41.828 73.7909C41.8653 73.9775 41.9027 74.2622 41.94 74.6449C41.9867 75.0275 42.0333 75.4662 42.08 75.9609C42.1267 76.4555 42.1733 76.9735 42.22 77.5149C42.2667 78.0469 42.3087 78.5649 42.346 79.0689C42.3927 79.5729 42.43 80.0302 42.458 80.4409C42.486 80.8422 42.5047 81.1595 42.514 81.3929C42.3553 81.4862 42.1873 81.5515 42.01 81.5889C41.842 81.6355 41.6227 81.6589 41.352 81.6589C41.0067 81.6589 40.708 81.5982 40.456 81.4769C40.2133 81.3555 40.0827 81.1175 40.064 80.7629C40.0267 80.0815 39.9987 79.4469 39.98 78.8589C39.9613 78.2709 39.9473 77.7342 39.938 77.2489C39.9287 76.7635 39.9147 76.3389 39.896 75.9749H39.826C39.7327 76.3389 39.5973 76.7962 39.42 77.3469C39.2427 77.8975 39.028 78.6022 38.776 79.4609ZM46.7963 81.7709C45.8163 81.7709 45.0276 81.5842 44.4303 81.2109C43.8423 80.8282 43.5483 80.2542 43.5483 79.4889C43.5483 78.8449 43.7396 78.3502 44.1223 78.0049C44.5143 77.6595 45.1069 77.4449 45.9003 77.3609L47.7343 77.1649V77.0669C47.7343 76.7962 47.6129 76.6049 47.3703 76.4929C47.1369 76.3715 46.7963 76.3109 46.3483 76.3109C46.0029 76.3109 45.6576 76.3482 45.3123 76.4229C44.9763 76.4975 44.6729 76.5909 44.4023 76.7029C44.2809 76.6189 44.1783 76.4929 44.0943 76.3249C44.0103 76.1475 43.9683 75.9655 43.9683 75.7789C43.9683 75.3309 44.2063 75.0135 44.6823 74.8269C44.9529 74.7242 45.2703 74.6495 45.6343 74.6029C46.0076 74.5562 46.3576 74.5329 46.6843 74.5329C47.7016 74.5329 48.5136 74.7429 49.1203 75.1629C49.7363 75.5735 50.0443 76.2175 50.0443 77.0949V80.2309C50.0443 80.4735 49.9743 80.6742 49.8343 80.8329C49.7036 80.9822 49.5449 81.1129 49.3583 81.2249C49.0596 81.4022 48.6956 81.5375 48.2663 81.6309C47.8369 81.7242 47.3469 81.7709 46.7963 81.7709ZM46.7963 80.0349C46.9549 80.0349 47.1276 80.0209 47.3143 79.9929C47.5103 79.9555 47.6549 79.9089 47.7483 79.8529V78.7329L46.7403 78.8169C46.4789 78.8355 46.2643 78.8915 46.0963 78.9849C45.9283 79.0782 45.8443 79.2182 45.8443 79.4049C45.8443 79.5915 45.9143 79.7455 46.0543 79.8669C46.2036 79.9789 46.4509 80.0349 46.7963 80.0349ZM51.5695 77.8509H53.9495V81.5329C53.8468 81.5609 53.6975 81.5889 53.5015 81.6169C53.3148 81.6449 53.1095 81.6589 52.8855 81.6589C52.4282 81.6589 52.0922 81.5795 51.8775 81.4209C51.6722 81.2622 51.5695 80.9682 51.5695 80.5389V77.8509ZM53.9495 79.0969H51.5695V72.4189C51.6722 72.3909 51.8168 72.3629 52.0035 72.3349C52.1995 72.3069 52.4095 72.2929 52.6335 72.2929C53.1002 72.2929 53.4362 72.3722 53.6415 72.5309C53.8468 72.6802 53.9495 72.9742 53.9495 73.4129V79.0969ZM56.626 79.2089L56.542 77.6409L59.776 77.1089C59.7573 76.9222 59.664 76.7355 59.496 76.5489C59.328 76.3622 59.0667 76.2689 58.712 76.2689C58.3387 76.2689 58.026 76.3902 57.774 76.6329C57.5313 76.8755 57.4007 77.2209 57.382 77.6689L57.466 78.8449C57.5593 79.2742 57.7693 79.5729 58.096 79.7409C58.432 79.9089 58.8053 79.9929 59.216 79.9929C59.608 79.9929 59.9813 79.9415 60.336 79.8389C60.6907 79.7362 60.9753 79.6242 61.19 79.5029C61.3393 79.5962 61.4653 79.7269 61.568 79.8949C61.6707 80.0629 61.722 80.2402 61.722 80.4269C61.722 80.7349 61.6053 80.9915 61.372 81.1969C61.148 81.3929 60.8353 81.5375 60.434 81.6309C60.0327 81.7242 59.5707 81.7709 59.048 81.7709C58.32 81.7709 57.662 81.6355 57.074 81.3649C56.4953 81.0849 56.0333 80.6695 55.688 80.1189C55.352 79.5682 55.184 78.8775 55.184 78.0469C55.184 77.4309 55.282 76.8989 55.478 76.4509C55.6833 76.0029 55.954 75.6389 56.29 75.3589C56.626 75.0789 56.9993 74.8735 57.41 74.7429C57.83 74.6029 58.2593 74.5329 58.698 74.5329C59.3607 74.5329 59.9393 74.6635 60.434 74.9249C60.9287 75.1769 61.316 75.5269 61.596 75.9749C61.876 76.4135 62.016 76.9222 62.016 77.5009C62.016 77.8182 61.9273 78.0609 61.75 78.2289C61.5727 78.3969 61.3253 78.5042 61.008 78.5509L56.626 79.2089Z" fill="white"/>
</svg>
