<svg width="24" height="25" viewBox="0 0 24 25" fill="none" xmlns="http://www.w3.org/2000/svg">
<path d="M9.87609 16.5491L9.87609 16.5492L9.88863 16.5482C11.3016 16.4343 12.721 16.4343 14.1339 16.5482L14.1339 16.5483L14.145 16.549C14.9061 16.5933 15.6636 16.6885 16.4127 16.8339C18.0547 17.1666 18.9369 17.6788 19.2924 18.3518C19.5692 18.9025 19.5692 19.5584 19.2923 20.1091C18.9341 20.7877 18.0851 21.3315 16.4065 21.6249L16.4065 21.6247L16.3938 21.6273C15.6457 21.7781 14.8886 21.8762 14.1275 21.9208L14.1148 21.9215L14.102 21.9229C13.4072 21.9995 12.708 22 11.968 22H10.6758C10.3952 21.9652 10.1209 21.9472 9.85289 21.9466C9.09724 21.9071 8.34525 21.8123 7.60263 21.6628L7.59817 21.662C5.96184 21.3481 5.0753 20.8181 4.71985 20.1414C4.57704 19.8684 4.50132 19.5624 4.50011 19.2507L4.50008 19.248C4.49718 18.9352 4.57049 18.6272 4.71256 18.3524L4.71285 18.3518C5.05985 17.6785 5.94374 17.1399 7.59473 16.8351L7.59474 16.8351L7.60028 16.8341C8.35182 16.6865 9.11215 16.5913 9.87609 16.5491ZM12.0026 3C14.6136 3 16.7539 5.18068 16.7539 7.90036C16.7539 10.62 14.6136 12.8007 12.0026 12.8007C9.39165 12.8007 7.25131 10.62 7.25131 7.90036C7.25131 5.18068 9.39165 3 12.0026 3Z" stroke="#D3D3D3"/>
</svg>
